<svg width="12" height="12" viewBox="0 0 12 12" fill="none" xmlns="http://www.w3.org/2000/svg">
<path d="M8.91663 1.25016H11.25C11.4047 1.25016 11.553 1.31162 11.6624 1.42102C11.7718 1.53041 11.8333 1.67879 11.8333 1.8335V11.1668C11.8333 11.3215 11.7718 11.4699 11.6624 11.5793C11.553 11.6887 11.4047 11.7502 11.25 11.7502H0.749959C0.59525 11.7502 0.446877 11.6887 0.33748 11.5793C0.228084 11.4699 0.166626 11.3215 0.166626 11.1668V1.8335C0.166626 1.67879 0.228084 1.53041 0.33748 1.42102C0.446877 1.31162 0.59525 1.25016 0.749959 1.25016H3.08329V0.0834961H4.24996V1.25016H7.74996V0.0834961H8.91663V1.25016ZM7.74996 2.41683H4.24996V3.5835H3.08329V2.41683H1.33329V4.75016H10.6666V2.41683H8.91663V3.5835H7.74996V2.41683ZM10.6666 5.91683H1.33329V10.5835H10.6666V5.91683Z" fill="#B4B4B4"/>
</svg>
