<svg width="19" height="19" viewBox="0 0 19 19" fill="none" xmlns="http://www.w3.org/2000/svg">
<path d="M13.875 4.44351H18.25V6.25803H16.5V18.0525C16.5 18.2931 16.4078 18.5238 16.2437 18.694C16.0796 18.8641 15.8571 18.9597 15.625 18.9597H3.375C3.14294 18.9597 2.92038 18.8641 2.75628 18.694C2.59219 18.5238 2.5 18.2931 2.5 18.0525V6.25803H0.75V4.44351H5.125V1.72172C5.125 1.4811 5.21719 1.25033 5.38128 1.08018C5.54538 0.910039 5.76794 0.814453 6 0.814453H13C13.2321 0.814453 13.4546 0.910039 13.6187 1.08018C13.7828 1.25033 13.875 1.4811 13.875 1.72172V4.44351ZM14.75 6.25803H4.25V17.1452H14.75V6.25803ZM6.875 8.97982H8.625V14.4234H6.875V8.97982ZM10.375 8.97982H12.125V14.4234H10.375V8.97982ZM6.875 2.62898V4.44351H12.125V2.62898H6.875Z" fill="#878787"/>
</svg>
