<svg width="17" height="17" viewBox="0 0 17 17" fill="none" xmlns="http://www.w3.org/2000/svg">
<path d="M11.955 12.924L11.0174 11.9865L9.30279 13.7011V8.28269H7.97671V13.7011L6.26208 11.9865L5.32453 12.924L8.63975 16.2392L11.955 12.924ZM16.5963 1.65226V0.326172H12.618V6.95661H13.9441V4.30443H15.9332V2.97835H13.9441V1.65226H16.5963ZM9.30279 6.95661H6.65062V0.326172H9.30279C9.83018 0.326698 10.3358 0.536436 10.7087 0.909356C11.0817 1.28228 11.2914 1.78791 11.2919 2.3153V4.96748C11.2914 5.49487 11.0817 6.0005 10.7087 6.37342C10.3358 6.74634 9.83018 6.95608 9.30279 6.95661V6.95661ZM7.97671 5.63052H9.30279C9.47859 5.63034 9.64713 5.56043 9.77144 5.43613C9.89575 5.31182 9.96566 5.14327 9.96584 4.96748V2.3153C9.96566 2.13951 9.89575 1.97096 9.77144 1.84665C9.64713 1.72235 9.47859 1.65243 9.30279 1.65226H7.97671V5.63052ZM3.99845 0.326172H0.683228V6.95661H2.00931V4.96748H3.99845C4.34998 4.96695 4.68697 4.82707 4.93555 4.57849C5.18412 4.32992 5.32401 3.99293 5.32453 3.64139V1.65226C5.32418 1.30067 5.18436 0.963575 4.93574 0.714961C4.68713 0.466348 4.35004 0.326523 3.99845 0.326172V0.326172ZM2.00931 3.64139V1.65226H3.99845L3.99911 3.64139H2.00931Z" fill="#F2F2F2"/>
</svg>
