<svg width="12" height="13" viewBox="0 0 12 13" fill="none" xmlns="http://www.w3.org/2000/svg">
<path d="M5.99996 12.3332C2.77821 12.3332 0.166626 9.72159 0.166626 6.49984C0.166626 3.27809 2.77821 0.666504 5.99996 0.666504C9.22171 0.666504 11.8333 3.27809 11.8333 6.49984C11.8333 9.72159 9.22171 12.3332 5.99996 12.3332ZM5.99996 11.1665C7.23764 11.1665 8.42462 10.6748 9.29979 9.79967C10.175 8.9245 10.6666 7.73751 10.6666 6.49984C10.6666 5.26216 10.175 4.07518 9.29979 3.20001C8.42462 2.32484 7.23764 1.83317 5.99996 1.83317C4.76228 1.83317 3.5753 2.32484 2.70013 3.20001C1.82496 4.07518 1.33329 5.26216 1.33329 6.49984C1.33329 7.73751 1.82496 8.9245 2.70013 9.79967C3.5753 10.6748 4.76228 11.1665 5.99996 11.1665ZM6.58329 6.49984H8.91663V7.6665H5.41663V3.58317H6.58329V6.49984Z" fill="#B4B4B4"/>
</svg>
